<mxfile host="Electron" modified="2024-09-13T09:59:17.002Z" agent="Mozilla/5.0 (Windows NT 10.0; Win64; x64) AppleWebKit/537.36 (KHTML, like Gecko) draw.io/24.1.0 Chrome/120.0.6099.109 Electron/28.1.0 Safari/537.36" etag="fRA2g6eKyUv1KjY1kBE0" version="24.1.0" type="device" pages="3">
  <diagram name="第 1 页" id="GIAjR0rXeWZUQFvc5wLO">
    <mxGraphModel dx="1434" dy="836" grid="1" gridSize="10" guides="1" tooltips="1" connect="1" arrows="1" fold="1" page="1" pageScale="1" pageWidth="827" pageHeight="1169" math="0" shadow="0">
      <root>
        <mxCell id="0" />
        <mxCell id="1" parent="0" />
        <mxCell id="zaIRJdftHB46xq49ESVS-17" value="" style="shape=flexArrow;endArrow=classic;startArrow=classic;html=1;rounded=0;entryX=0.5;entryY=1;entryDx=0;entryDy=0;dashed=1;" parent="1" target="zaIRJdftHB46xq49ESVS-5" edge="1">
          <mxGeometry width="100" height="100" relative="1" as="geometry">
            <mxPoint x="293" y="430" as="sourcePoint" />
            <mxPoint x="292" y="260" as="targetPoint" />
          </mxGeometry>
        </mxCell>
        <mxCell id="zaIRJdftHB46xq49ESVS-16" value="" style="shape=flexArrow;endArrow=classic;startArrow=classic;html=1;rounded=0;exitX=0.089;exitY=-0.033;exitDx=0;exitDy=0;exitPerimeter=0;entryX=0.5;entryY=1;entryDx=0;entryDy=0;dashed=1;" parent="1" edge="1">
          <mxGeometry width="100" height="100" relative="1" as="geometry">
            <mxPoint x="476" y="430" as="sourcePoint" />
            <mxPoint x="476" y="262" as="targetPoint" />
          </mxGeometry>
        </mxCell>
        <mxCell id="zaIRJdftHB46xq49ESVS-15" value="" style="shape=flexArrow;endArrow=classic;startArrow=classic;html=1;rounded=0;exitX=0.089;exitY=-0.033;exitDx=0;exitDy=0;exitPerimeter=0;entryX=0.5;entryY=1;entryDx=0;entryDy=0;dashed=1;" parent="1" edge="1">
          <mxGeometry width="100" height="100" relative="1" as="geometry">
            <mxPoint x="389" y="430" as="sourcePoint" />
            <mxPoint x="389" y="262" as="targetPoint" />
          </mxGeometry>
        </mxCell>
        <mxCell id="zaIRJdftHB46xq49ESVS-1" value="Data Lake(S3, GCS)" style="rounded=1;whiteSpace=wrap;html=1;fillColor=#dae8fc;fontSize=28;gradientColor=#7ea6e0;strokeColor=#6c8ebf;" parent="1" vertex="1">
          <mxGeometry x="250" y="530" width="540" height="60" as="geometry" />
        </mxCell>
        <mxCell id="zaIRJdftHB46xq49ESVS-2" value="STORAGE" style="text;html=1;align=center;verticalAlign=middle;whiteSpace=wrap;rounded=0;fontSize=28;" parent="1" vertex="1">
          <mxGeometry x="140" y="545" width="60" height="30" as="geometry" />
        </mxCell>
        <mxCell id="zaIRJdftHB46xq49ESVS-3" value="CATALOG PROTOCOL" style="rounded=1;whiteSpace=wrap;html=1;fillColor=#f8cecc;strokeColor=#b85450;gradientColor=#ea6b66;fontSize=28;" parent="1" vertex="1">
          <mxGeometry x="250" y="430" width="540" height="60" as="geometry" />
        </mxCell>
        <mxCell id="zaIRJdftHB46xq49ESVS-4" value="CATALOG" style="text;html=1;align=center;verticalAlign=middle;whiteSpace=wrap;rounded=0;fontSize=28;" parent="1" vertex="1">
          <mxGeometry x="140" y="445" width="60" height="30" as="geometry" />
        </mxCell>
        <mxCell id="zaIRJdftHB46xq49ESVS-5" value="Spark" style="rounded=1;whiteSpace=wrap;html=1;fillColor=#fff2cc;fontSize=28;gradientColor=#ffd966;strokeColor=#d6b656;" parent="1" vertex="1">
          <mxGeometry x="250" y="210" width="85" height="50" as="geometry" />
        </mxCell>
        <mxCell id="zaIRJdftHB46xq49ESVS-6" value="ENGINES" style="text;html=1;align=center;verticalAlign=middle;whiteSpace=wrap;rounded=0;fontSize=28;" parent="1" vertex="1">
          <mxGeometry x="140" y="220" width="60" height="30" as="geometry" />
        </mxCell>
        <mxCell id="zaIRJdftHB46xq49ESVS-9" value="Doris" style="rounded=1;whiteSpace=wrap;html=1;fillColor=#fff2cc;fontSize=28;gradientColor=#ffd966;strokeColor=#d6b656;" parent="1" vertex="1">
          <mxGeometry x="347" y="210" width="82.5" height="50" as="geometry" />
        </mxCell>
        <mxCell id="zaIRJdftHB46xq49ESVS-10" value="Flink" style="rounded=1;whiteSpace=wrap;html=1;fillColor=#fff2cc;fontSize=28;gradientColor=#ffd966;strokeColor=#d6b656;" parent="1" vertex="1">
          <mxGeometry x="440" y="210" width="80" height="50" as="geometry" />
        </mxCell>
        <mxCell id="zaIRJdftHB46xq49ESVS-11" value="SQL&amp;nbsp; APIs" style="rounded=1;whiteSpace=wrap;html=1;fillColor=#d5e8d4;fontSize=28;gradientColor=#97d077;strokeColor=#82b366;" parent="1" vertex="1">
          <mxGeometry x="260" y="320" width="250" height="60" as="geometry" />
        </mxCell>
        <mxCell id="zaIRJdftHB46xq49ESVS-12" value="Data Science" style="rounded=1;whiteSpace=wrap;html=1;fillColor=#f5f5f5;fontSize=28;gradientColor=#b3b3b3;strokeColor=#666666;" parent="1" vertex="1">
          <mxGeometry x="540" y="190" width="120" height="70" as="geometry" />
        </mxCell>
        <mxCell id="zaIRJdftHB46xq49ESVS-18" value="Machine Learning" style="rounded=1;whiteSpace=wrap;html=1;fillColor=#f5f5f5;fontSize=28;gradientColor=#b3b3b3;strokeColor=#666666;" parent="1" vertex="1">
          <mxGeometry x="670" y="190" width="130" height="70" as="geometry" />
        </mxCell>
        <mxCell id="zaIRJdftHB46xq49ESVS-20" value="" style="shape=flexArrow;endArrow=classic;startArrow=classic;html=1;rounded=0;exitX=0.089;exitY=-0.033;exitDx=0;exitDy=0;exitPerimeter=0;entryX=0.5;entryY=1;entryDx=0;entryDy=0;dashed=1;" parent="1" edge="1">
          <mxGeometry width="100" height="100" relative="1" as="geometry">
            <mxPoint x="731" y="429" as="sourcePoint" />
            <mxPoint x="731" y="260" as="targetPoint" />
          </mxGeometry>
        </mxCell>
        <mxCell id="zaIRJdftHB46xq49ESVS-22" value="" style="shape=flexArrow;endArrow=classic;startArrow=classic;html=1;rounded=0;exitX=0.089;exitY=-0.033;exitDx=0;exitDy=0;exitPerimeter=0;entryX=0.5;entryY=1;entryDx=0;entryDy=0;dashed=1;" parent="1" edge="1">
          <mxGeometry width="100" height="100" relative="1" as="geometry">
            <mxPoint x="608" y="430" as="sourcePoint" />
            <mxPoint x="608" y="260" as="targetPoint" />
          </mxGeometry>
        </mxCell>
        <mxCell id="xDxUA7U8oSIUUz6IUWg7-1" value="Lakehouse" style="text;html=1;align=center;verticalAlign=middle;whiteSpace=wrap;rounded=0;fontSize=30;" parent="1" vertex="1">
          <mxGeometry x="510" y="610" width="60" height="30" as="geometry" />
        </mxCell>
      </root>
    </mxGraphModel>
  </diagram>
  <diagram id="SuD3y36RHnoVlsVuo6Jw" name="第 2 页">
    <mxGraphModel dx="2261" dy="836" grid="1" gridSize="10" guides="1" tooltips="1" connect="1" arrows="1" fold="1" page="1" pageScale="1" pageWidth="827" pageHeight="1169" math="0" shadow="0">
      <root>
        <mxCell id="0" />
        <mxCell id="1" parent="0" />
        <mxCell id="YugBKwHtwGT9270-lhhB-1" value="&lt;font style=&quot;font-size: 30px;&quot; face=&quot;宋体&quot;&gt;Delta Lake&lt;/font&gt;" style="rounded=1;whiteSpace=wrap;html=1;fillColor=#d5e8d4;strokeColor=#82b366;gradientColor=#97d077;" parent="1" vertex="1">
          <mxGeometry x="-30" y="230" width="160" height="90" as="geometry" />
        </mxCell>
        <mxCell id="YugBKwHtwGT9270-lhhB-2" value="&lt;font style=&quot;font-size: 30px;&quot;&gt;Apache Hudi&lt;/font&gt;" style="rounded=1;whiteSpace=wrap;html=1;fillColor=#d5e8d4;strokeColor=#82b366;fontSize=24;fontFamily=宋体;gradientColor=#97d077;" parent="1" vertex="1">
          <mxGeometry x="250" y="230" width="176.5" height="90" as="geometry" />
        </mxCell>
        <mxCell id="YugBKwHtwGT9270-lhhB-3" value="&lt;font style=&quot;font-size: 30px;&quot;&gt;Apache Hive&lt;/font&gt;" style="rounded=1;whiteSpace=wrap;html=1;fillColor=#d5e8d4;strokeColor=#82b366;fontSize=24;fontFamily=宋体;gradientColor=#97d077;" parent="1" vertex="1">
          <mxGeometry x="615" y="230" width="180" height="90" as="geometry" />
        </mxCell>
        <mxCell id="YugBKwHtwGT9270-lhhB-5" value="&lt;font&gt;&lt;span style=&quot;font-size: 30px;&quot;&gt;Data Lake&lt;/span&gt;&lt;/font&gt;" style="rounded=1;whiteSpace=wrap;html=1;fillColor=#dae8fc;strokeColor=#6c8ebf;gradientColor=#7ea6e0;fontFamily=宋体;" parent="1" vertex="1">
          <mxGeometry x="-20" y="420" width="770" height="90" as="geometry" />
        </mxCell>
        <mxCell id="YugBKwHtwGT9270-lhhB-6" value="&lt;font style=&quot;font-size: 30px;&quot;&gt;LakehouseDB&lt;/font&gt;" style="rounded=1;whiteSpace=wrap;html=1;fillColor=#d5e8d4;strokeColor=#82b366;fontSize=24;fontFamily=宋体;gradientColor=#97d077;" parent="1" vertex="1">
          <mxGeometry x="620" y="50" width="175" height="90" as="geometry" />
        </mxCell>
        <mxCell id="YugBKwHtwGT9270-lhhB-7" value="" style="shape=flexArrow;endArrow=classic;startArrow=classic;html=1;rounded=0;width=12;startSize=5.66;entryX=0.5;entryY=1;entryDx=0;entryDy=0;" parent="1" target="YugBKwHtwGT9270-lhhB-1" edge="1">
          <mxGeometry width="100" height="100" relative="1" as="geometry">
            <mxPoint x="50" y="420" as="sourcePoint" />
            <mxPoint x="270" y="300" as="targetPoint" />
          </mxGeometry>
        </mxCell>
        <mxCell id="YugBKwHtwGT9270-lhhB-8" value="" style="shape=flexArrow;endArrow=classic;startArrow=classic;html=1;rounded=0;width=12;startSize=5.66;entryX=0.465;entryY=0.978;entryDx=0;entryDy=0;entryPerimeter=0;" parent="1" edge="1">
          <mxGeometry width="100" height="100" relative="1" as="geometry">
            <mxPoint x="706" y="230" as="sourcePoint" />
            <mxPoint x="706.0250000000001" y="140.01999999999998" as="targetPoint" />
          </mxGeometry>
        </mxCell>
        <mxCell id="YugBKwHtwGT9270-lhhB-9" value="&lt;span style=&quot;font-size: 30px;&quot;&gt;Hive Metastore&lt;/span&gt;" style="rounded=1;whiteSpace=wrap;html=1;fillColor=#ffcd28;strokeColor=#d79b00;fontSize=24;fontFamily=宋体;gradientColor=#ffa500;" parent="1" vertex="1">
          <mxGeometry x="441" y="160" width="158" height="90" as="geometry" />
        </mxCell>
        <mxCell id="YugBKwHtwGT9270-lhhB-13" value="" style="shape=flexArrow;endArrow=classic;startArrow=classic;html=1;rounded=0;entryX=0;entryY=0.5;entryDx=0;entryDy=0;exitX=1;exitY=0.5;exitDx=0;exitDy=0;" parent="1" source="YugBKwHtwGT9270-lhhB-2" target="YugBKwHtwGT9270-lhhB-3" edge="1">
          <mxGeometry width="100" height="100" relative="1" as="geometry">
            <mxPoint x="230" y="340" as="sourcePoint" />
            <mxPoint x="330" y="240" as="targetPoint" />
          </mxGeometry>
        </mxCell>
        <mxCell id="YugBKwHtwGT9270-lhhB-14" value="" style="shape=flexArrow;endArrow=classic;startArrow=classic;html=1;rounded=0;entryX=0;entryY=0.5;entryDx=0;entryDy=0;strokeColor=#FF0000;" parent="1" source="YugBKwHtwGT9270-lhhB-1" target="YugBKwHtwGT9270-lhhB-2" edge="1">
          <mxGeometry width="100" height="100" relative="1" as="geometry">
            <mxPoint x="140" y="370" as="sourcePoint" />
            <mxPoint x="345" y="274.5" as="targetPoint" />
          </mxGeometry>
        </mxCell>
        <mxCell id="sjz2x0YQaEAMoVw5mwJd-2" value="&lt;font face=&quot;宋体&quot; style=&quot;font-size: 25px;&quot;&gt;数据通信流程&lt;/font&gt;" style="text;html=1;align=center;verticalAlign=middle;whiteSpace=wrap;rounded=0;fontFamily=宋体;" parent="1" vertex="1">
          <mxGeometry x="280" y="530" width="200" height="30" as="geometry" />
        </mxCell>
      </root>
    </mxGraphModel>
  </diagram>
  <diagram name="第 2 页 的副本" id="iyHGWIDEoAEc12Ol-MzQ">
    <mxGraphModel dx="1434" dy="836" grid="1" gridSize="10" guides="1" tooltips="1" connect="1" arrows="1" fold="1" page="1" pageScale="1" pageWidth="827" pageHeight="1169" math="0" shadow="0">
      <root>
        <mxCell id="PMBvnZQ5BnzVLVES6vKH-0" />
        <mxCell id="PMBvnZQ5BnzVLVES6vKH-1" parent="PMBvnZQ5BnzVLVES6vKH-0" />
        <mxCell id="PMBvnZQ5BnzVLVES6vKH-4" value="&lt;font style=&quot;font-size: 30px;&quot;&gt;Apache Hive&lt;/font&gt;" style="rounded=1;whiteSpace=wrap;html=1;fillColor=#d5e8d4;strokeColor=#82b366;fontSize=24;fontFamily=宋体;gradientColor=#97d077;" vertex="1" parent="PMBvnZQ5BnzVLVES6vKH-1">
          <mxGeometry x="238.5" y="230" width="180" height="90" as="geometry" />
        </mxCell>
        <mxCell id="PMBvnZQ5BnzVLVES6vKH-5" value="&lt;font&gt;&lt;span style=&quot;font-size: 30px;&quot;&gt;Data Lake(Apache Hudi)&lt;/span&gt;&lt;/font&gt;&lt;div style=&quot;text-align: left;&quot;&gt;&lt;span style=&quot;font-size: 30px; background-color: initial;&quot;&gt;OSS(S3)&lt;/span&gt;&lt;/div&gt;" style="rounded=1;whiteSpace=wrap;html=1;fillColor=#dae8fc;strokeColor=#6c8ebf;gradientColor=#7ea6e0;fontFamily=宋体;" vertex="1" parent="PMBvnZQ5BnzVLVES6vKH-1">
          <mxGeometry x="150" y="420" width="490" height="90" as="geometry" />
        </mxCell>
        <mxCell id="PMBvnZQ5BnzVLVES6vKH-6" value="&lt;font style=&quot;font-size: 30px;&quot;&gt;LakehouseDB&lt;/font&gt;" style="rounded=1;whiteSpace=wrap;html=1;fillColor=#d5e8d4;strokeColor=#82b366;fontSize=24;fontFamily=宋体;gradientColor=#97d077;" vertex="1" parent="PMBvnZQ5BnzVLVES6vKH-1">
          <mxGeometry x="238.5" y="50" width="175" height="90" as="geometry" />
        </mxCell>
        <mxCell id="PMBvnZQ5BnzVLVES6vKH-8" value="" style="shape=flexArrow;endArrow=classic;startArrow=classic;html=1;rounded=0;width=12;startSize=5.66;entryX=0.465;entryY=0.978;entryDx=0;entryDy=0;entryPerimeter=0;" edge="1" parent="PMBvnZQ5BnzVLVES6vKH-1">
          <mxGeometry width="100" height="100" relative="1" as="geometry">
            <mxPoint x="328" y="229.98" as="sourcePoint" />
            <mxPoint x="328.0250000000001" y="139.99999999999997" as="targetPoint" />
          </mxGeometry>
        </mxCell>
        <mxCell id="PMBvnZQ5BnzVLVES6vKH-9" value="&lt;span style=&quot;font-size: 30px;&quot;&gt;Hive Metastore&lt;/span&gt;" style="rounded=1;whiteSpace=wrap;html=1;fillColor=#ffcd28;strokeColor=#d79b00;fontSize=24;fontFamily=宋体;gradientColor=#ffa500;" vertex="1" parent="PMBvnZQ5BnzVLVES6vKH-1">
          <mxGeometry x="440" y="230" width="158" height="90" as="geometry" />
        </mxCell>
        <mxCell id="PMBvnZQ5BnzVLVES6vKH-11" value="" style="shape=flexArrow;endArrow=classic;startArrow=classic;html=1;rounded=0;entryX=0;entryY=0.5;entryDx=0;entryDy=0;strokeColor=#000000;" edge="1" parent="PMBvnZQ5BnzVLVES6vKH-1">
          <mxGeometry width="100" height="100" relative="1" as="geometry">
            <mxPoint x="328" y="420" as="sourcePoint" />
            <mxPoint x="328" y="320" as="targetPoint" />
          </mxGeometry>
        </mxCell>
        <mxCell id="PMBvnZQ5BnzVLVES6vKH-12" value="&lt;font face=&quot;宋体&quot; style=&quot;font-size: 25px;&quot;&gt;数据流通信过程&lt;/font&gt;" style="text;html=1;align=center;verticalAlign=middle;whiteSpace=wrap;rounded=0;fontFamily=宋体;" vertex="1" parent="PMBvnZQ5BnzVLVES6vKH-1">
          <mxGeometry x="295" y="520" width="200" height="30" as="geometry" />
        </mxCell>
      </root>
    </mxGraphModel>
  </diagram>
</mxfile>
